<svg xmlns="http://www.w3.org/2000/svg" xmlns:svg="http://www.w3.org/2000/svg" id="svg2403" width="166.35" height="151.164" version="1.0" xml:space="preserve"><metadata id="metadata2408"/><path style="display:inline;fill:#346733;fill-opacity:1;fill-rule:evenodd;stroke:none;stroke-width:1px;stroke-linecap:butt;stroke-linejoin:miter;stroke-opacity:1" id="path13677" d="m 49.845737,151.16363 1.68334,-1.33732 -0.21428,-4.78472 2.11691,-2.60767 -1.80077,-0.0957 1.77466,-5.90245 -1.17175,-5.53355 3.83433,-12.08584 2.7054,0.0332 1.74063,-0.1808 2.70011,2.70425 10.84455,3.68049 6.11352,4.1091 -2.36524,5.96379 1.05113,1.65023 -2.60975,0.58527 0.21632,2.08254 -2.18027,2.30007 2.29887,1.86623 2.05233,-3.22932 0.21955,2.11362 1.73822,-0.80892 -1.0863,1.33814 2.76559,-2.10952 2.54956,1.55742 2.57828,-1.49313 1.05556,1.99537 2.05229,-0.81013 7.11505,2.55983 0.80777,-0.99503 -4.28899,-1.06256 -0.55621,-2.33 5.84438,-1.20403 0.995043,0.80777 1.89648,-1.70507 -0.98979,-1.05965 1.89118,0.96602 -0.74231,-1.39954 1.77171,-0.18404 -0.30672,-2.95287 2.26865,-1.14677 1.40243,-4.04153 -3.10784,-1.18525 1.49848,-2.51202 1.64696,1.337 0.37102,-2.17497 0.46701,1.77374 2.45148,0.31088 1.30915,-1.61264 -0.77582,-2.02443 1.0253,1.40157 0.43559,-1.55332 -0.53333,3.63706 4.22234,3.14308 2.45795,0.37304 0.90468,-2.48175 0.46581,1.45968 1.33699,-1.64695 1.02529,1.40157 -0.0884,-3.57249 1.67278,1.58566 1.80607,-2.57539 -1.92467,-1.59091 2.92058,-0.61755 -2.26336,-1.52431 2.82487,1.18322 0.96483,-2.20524 -0.74556,-1.43062 -0.80777,0.99503 0.93779,-2.76796 -2.39337,0.24862 2.29974,-1.15001 3.97816,1.09483 -0.24862,-2.39336 -2.14066,-0.34317 -0.21632,-2.08255 1.92549,0.99388 -0.61756,-2.92057 3.84809,5.28696 2.49116,-4.75156 -1.61259,-3.72835 4.32711,-7.644215 4.29309,-1.92261 3.66819,-1.8891 6.34542,-5.15192 2.42687,0.37627 7.24889,-7.94773 0.53333,-3.63707 2.07844,2.76883 -0.66863,-12.18362 -5.30367,-7.80631 1.64695,1.337 0.41541,-1.1428 -1.0362,-1.80887 3.13691,1.46499 -10.18237,-11.82374 -1.57828,-3.70049 -0.83595,-2.30094 -5.09057,-5.75485 -0.95335,-6.15319 2.26746,-1.46083 -1.61259,-3.72834 -6.42763,-1.68869 -4.7266,0.77374 -5.51067,7.1388 -0.31082,0.0323 -13.18073,2.56303 -1.93167,4.69344 -5.78511,4.49678 -19.619783,6.81356 -12.61506,-3.1824 0.37748,-2.11281 -2.76473,-0.90671 -3.66198,-6.21742 1.52426,0.15585 -3.48001,-1.74352 0.21632,2.08254 -6.35072,7.82302 0.24538,2.36228 -1.11362,-4.97406 1.77703,-2.85513 -0.33902,-3.26369 1.49197,-0.15497 0.71736,-1.86536 -3.48209,0.95865 -1.03026,4.59982 -2.07845,-2.76883 1.65111,-4.06736 -2.89152,0.89731 -2.57862,-1.83717 -0.74233,-1.39954 0.37218,0.55828 -0.80482,-4.72337 -1.02409,-1.08751 -2.3259,-2.42894 -10.84335,-3.36644 -4.85344,4.99694 -0.74556,-1.43063 1.74146,-0.77784 -3.29478,0.34225 0.46789,-1.24249 -3.19825,-2.05556 0.15174,1.46089 -6.18957,3.62766 1.7136,-0.74353 -0.77991,0.96073 -8.48521,1.79253 -0.94194,8.1723 -2.7095,2.95199 0.99504,0.80777 -2.65024,6.24474 -5.4763099,4.74746 0.71448,1.43385 -3.05267,5.09266 -0.9669,4.90741 L 7.0703121e-6,68.433445 2.1389271,74.809075 l -0.81837,6.33721 5.70933,8.98948 3.8501599,2.58479 0.55212,5.31515 0.15585,-1.52425 2.70332,2.73533 -0.27766,-2.67312 0.9942,1.4048 0.80777,-0.99504 3.84192,10.974285 11.08671,6.0117 1.82601,9.1101 2.63876,2.11368 0.42734,6.83618 3.94057,3.4551 3.45303,-1.23838 1.32792,7.33957 z m 112.594713,-90.209695 1.50604,2.70262 -1.45679,-2.83341 z m -57.48049,82.411125 -2.98105,-2.98926 -2.427743,2.63996 2.394583,0.0654 0.77669,-0.99181 z m -0.0614,-0.59058 1.24457,-2.23429 -2.60975,0.58527 z m -30.015233,-7.06165 1.30793,-1.92669 0.12597,-1.20698 -2.67108,-0.005 z m 33.025083,-15.68355 1.18524,-3.10784 0.86502,2.58069 z M 1.0346971,86.862625 l 1.12188,-3.41544 -0.46258,-1.42861 z m 64.7374899,-53.38054 -1.64373,-1.30592 -4.0424,1.61379 z m -41.99804,-15.65082 -0.18727,-1.80279 -1.27358,-0.46466 z m 11.44337,-4.77035 -0.0625,-3.3238205 -2.82077,-4.16837 1.30263,0.74439 -0.18404,-1.77171 -2.41832,-3.01629 L 28.174137,-5.46875e-6 26.802777,4.0382845 l -2.60768,-2.11691 -0.90757,5.78096 -0.40244,-1.15208 0.67481,6.4962905 5.13111,-2.32382 z"/></svg>